<svg xmlns="http://www.w3.org/2000/svg" width="600" height="600" style="overflow:hidden!important"><path d="M301.5 301.5h-3v-3h3v3z" fill="#2a232b"/><path d="M586.251 599.334c-6.588-14.238-24.585-35.337-44.58-41.166-24.717-7.209-80.511-15.924-101.199-20.769-16.584-3.888-49.986-33.882-61.692-43.95-2.1-1.8-3.819-5.517-3.861-8.28-.417-32.592 12.585-119.172 12.585-119.172H212.499s13.002 86.577 12.579 119.172c-.033 2.763-1.761 6.48-3.855 8.28-11.706 10.068-45.108 40.062-61.692 43.95-20.691 4.845-76.485 13.857-101.199 21.066-20.001 5.826-37.992 26.628-44.58 40.866C2.628 623.355 0 666.831 0 704.331h600c0-37.497-2.631-80.973-13.749-104.997z" fill="#93614a"/><path d="M477.468 552.174c73.026 10.626 103.758 26.124 113.382 152.163H600c0-37.5-2.631-80.976-13.749-105-6.588-14.238-24.585-35.337-44.58-41.166-24.717-7.209-80.511-15.924-101.199-20.769-16.584-3.888-54.726-36.207-64.929-49.05 10.08 14.112 38.373 46.815 63.162 55.38 11.859 4.098 21.735 5.964 38.763 8.442zm-316.17-8.442c24.789-8.562 53.079-41.268 63.162-55.38-10.2 12.84-48.342 45.162-64.929 49.05-20.688 4.845-76.482 13.857-101.199 21.066-19.995 5.826-37.992 26.628-44.58 40.866-11.118 24.024-13.749 67.5-13.749 105h9.15c9.564-125.232 40.425-141.549 113.382-152.163 17.025-2.475 26.904-4.341 38.763-8.439z" fill="#a27662"/><path d="M286.938 592.86s-15.222-4.827-21.249-7.137c-31.347-12.027-133.185-19.821-133.185-19.821s107.262 4.257 130.932 8.337c-1.374-14.301-9.051-60.012-9.051-60.012s15.447 50.445 19.227 63.171c2.022 6.804 13.326 15.462 13.326 15.462zm32.397-4.026c-.267.219-.573.504-.906.804.339-.255.645-.522.906-.804zm-32.397 4.026s8.679 8.976 13.041 9.09c5.73.153 14.484-8.697 18.453-12.312-3.795 2.871-12.477 4.173-15.93 4.308-3.99.153-15.564-1.086-15.564-1.086zm63.054-22.557c-4.635.744-13.158 2.367-13.158 2.367l6.861-44.67c-1.938 9.213-13.422 48.633-24.36 60.834 5.73-4.848 18.474-7.173 24.972-8.112 30.708-4.452 30.696-4.449 123.186-14.82 0 0-87.213-.465-117.501 4.401z" fill="#844e35"/><path d="M586.251 599.334c-6.588-14.238-24.585-35.337-44.58-41.166-24.717-7.209-80.511-15.924-101.199-20.769-16.584-3.888-49.986-33.882-61.692-43.95-2.1-1.8-3.819-5.517-3.861-8.28-.417-32.592 12.585-119.172 12.585-119.172H212.499s13.002 86.577 12.579 119.172c-.033 2.763-1.761 6.48-3.855 8.28-11.706 10.068-45.108 40.062-61.692 43.95-20.691 4.845-76.485 13.857-101.199 21.066-20.001 5.826-37.992 26.628-44.58 40.866C2.628 623.355 0 666.831 0 704.331h600c0-37.497-2.631-80.973-13.749-104.997z" fill="none" stroke="#652e15" stroke-width="4.5"/><path d="M75.602 162.779c7.126 5.302 15.497 9.087 24.401 9.087 8.902 0 17.269-3.781 24.394-9.08-.104-.358-.17-.718-.175-1.053-.088-6.862 1.561-20.607 2.82-30.025-15.654-1.97-38.431-1.97-54.084 0 1.26 9.419 2.908 23.163 2.819 30.024-.004.331-.07.688-.175 1.047z" fill="url(#a)" transform="scale(3)"/><path d="M386.571 713.934H212.16V545.385c66.75 14.097 110.64 13.011 174.414 0v168.549z" fill="#f3f1f3"/><path d="M322.32 713.127c-8.325 0-32.181.624-49.536-.69l-.03-.513c-2.454-55.974 3.387-92.157 13.611-117.864l.144-.369-.279-.279c-2.715-2.712-7.275-5.805-12.102-9.075-4.833-3.279-9.825-6.663-13.008-9.738 1.875-2.196 4.185-4.362 7.044-6.603.735-.375 3.486-2.529 17.922-14.913.642-.552 1.035-.888 1.086-.93 2.454-.534 6.414-.879 11.214-.879 6.549 0 14.193.663 19.536 1.689 4.683 4.374 10.353 15.987 12.474 21.51-2.928 6.873-6.384 9.387-11.151 12.852-2.322 1.689-4.956 3.603-7.956 6.336l-.249.225.063.333c12.078 60.93 12.081 75.162 12.081 88.926.003 6.063.003 19.827 1.017 29.955-.45.021-1.089.027-1.881.027z" fill="#131111"/><path d="M331.05 574.485c-2.262-5.985-8.13-17.79-12.84-22.077-8.628-1.689-23.949-2.529-31.41-.72-.324.264-18.744 16.149-18.93 15.78-2.718 2.124-5.364 4.512-7.56 7.17 6.183 6.228 19.965 13.668 25.5 19.2-10.95 27.54-15.99 64.77-13.65 118.14.03.33.03.69.06 1.02 20.268 1.56 49.65.993 52.65.669-3.48-33.921 4.314-31.365-13.17-119.559 9.204-8.385 14.895-8.988 19.35-19.623zm-15.75 57.12c-.063-.15-.12-.3-.153-.39 6 31.65 4.14 55.896 8.673 80.916-14.208-.954-36.042-.156-50.313-.156 1.107-21.594 3.564-95.052 14.22-119.22.51-.138 1.017-.252 1.527-.375l-3.096 104.208 8.241-105.198c.06-.006.12-.015.18-.024l5.403 97.815 1.251-98.202c.078.003.153-.003.231 0l12.597 109.065-6.9-108.411c.942.189 1.887.423 2.826.699.09 0 .21.03.3.09.312 3.006 2.808 25.206 5.013 39.183zm-2.643-41.427c-8.322-3.753-19.089-3.078-27.387.72-5.043-5.439-12.24-9.231-22.59-16.173 1.65-1.437 3.78-3.21 6.63-5.43.24 0 10.44-8.313 10.62-8.49 2.76-2.52 5.22-5.37 7.56-7.86 8.79-.36 21.69.06 29.46.42 4.5 5.628 8.793 14.088 12.03 20.82-5.883 8.613-11.703 12.45-16.323 15.993z"/><path d="M234.588 639.231c-34.602-120.213-18.975-88.743-28.197-135.96 6.084-14.439 11.874-31.32 15.126-34.794l.24-.258c6.876 72.021 26.874 40.908 71.352 83.166-25.425 16.962-48.993 60.996-58.521 87.846zm158.991-135.957c-4.344-11.106-12.231-27.381-15.645-30.993 4.272 62.034-45.438 49.653-73.05 78.6 26.436 17.139 51.519 61.98 60.516 88.365 39.36-130.542 18.15-73.227 28.179-135.972z" fill="#f3f1f4"/><path d="M377.403 470.901c0 15.411-1.26 27.486-3.786 31.017-7.329 17.427-39.309 29.559-49.17 34.53-7.485 3.681-14.826 8.427-20.49 14.55 11.439 7.428 17.115 10.149 38.79 43.32 12.738 21.327 19.617 37.344 22.683 46.92 40.134-132.993 18.666-74.934 28.77-138.03-4.758-12.258-13.797-29.553-16.797-32.307zm10.944 58.584c-5.871 54.234-10.473 43.455-23.22 102.543-8.148-25.932-33.225-68.739-58.29-81.273 11.811-8.871 15.093-9.393 29.187-15.837 43.188-19.26 44.955-37.155 42.414-60.813 3.621 4.269 9.375 18.483 14.076 28.563-2.577 9.438-3.747 22.914-4.167 26.817zm-150.75-13.797c-13.224-10.947-9.48-24.486-15.567-48.645-2.706 3-9.438 19.896-16.26 36.165 1.671 8.388 2.043 22.167 2.28 26.52 1.677 36.606 5.25 38.295 26.49 111.48 9.093-26.715 34.674-73.11 60.72-90.027-20.793-18.978-46.965-26.184-57.663-35.493zm16.38 76.527c-6.663 10.998-13.551 22.44-19.11 39.84-13.326-60.807-17.997-50.892-23.19-102.48-.96-8.913-1.851-18.081-4.2-26.88 4.914-10.764 11.943-30.843 14.193-32.985 4.098 21.234.198 40.386 17.007 50.985 7.863 5.988 33.312 15.96 52.56 31.08-11.673 6.93-17.955 11.013-37.26 40.44z" fill="#cfc8d7"/><path d="m360.957 629.472-3.627-7.962s27.444-84.525 32.229-108.675c2.736 25.062-28.602 116.637-28.602 116.637zm-124.32-3.309 4.308-9.777s-25.719-79.401-30.504-103.551c-2.736 25.062 26.196 113.328 26.196 113.328z" fill="#e1e0e1"/><path d="M374.361 586.815c21.195-62.502 8.268-67.653 18.915-88.407.402-.783 4.188 3.138 4.599 4.92 3.918 16.974 160.047 52.014 164.982 55.794 4.368 3.174 16.95 9.411 16.95 9.411 14.811 27.21 23.286 32.094 27.45 104.952.39 9.249-.183 35.403-.183 42.423l-256.677-2.028c.615-23.373 3.6-65.43 23.964-127.065zm-148.722 0c-21.195-62.502-8.268-67.653-18.915-88.407-.402-.783-4.188 3.138-4.599 4.92-3.918 16.974-160.047 52.014-164.982 55.794-4.368 3.174-16.95 9.411-16.95 9.411-14.811 27.21-23.286 32.094-27.45 104.952-.39 9.249.183 35.403.183 42.423l256.677-2.028c-.615-23.373-3.6-65.43-23.964-127.065z" fill="#152c5e"/><path d="M390.921 570c-13.656 49.161-32.313 93.348-40.518 143.88-2.67-.021 4.473-68.085 23.958-127.062 21.195-62.502 8.268-67.653 18.915-88.407.231-.45-1.857 5.928-.669 7.296-.438 23.181 5.268 41.109-1.686 64.293zm-181.842 0c13.656 49.161 32.313 93.348 40.518 143.88 2.67-.021-4.473-68.085-23.958-127.062-21.195-62.502-8.268-67.653-18.915-88.407-.231-.45 1.857 5.928.669 7.296.438 23.181-5.268 41.109 1.686 64.293z" fill="#0a1f4f"/><path d="M457.308 558.093s-6.852 7.683-25.908 20.769c15.939-17.655 23.283-24.747 23.283-24.747l2.625 3.978zm6.525 35.625-4.584-4.101c-13.614 41.343-22.713 61.761-38.484 109.854 22.632-42.978 28.032-58.236 43.068-105.753zm-318.516-39.603s7.341 7.092 23.283 24.747c-19.056-13.086-25.908-20.769-25.908-20.769l2.625-3.978zm33.918 145.356c-15.771-48.093-24.87-68.511-38.484-109.854l-4.584 4.101c15.036 47.517 20.436 62.775 43.068 105.753z" fill="#01153f"/><path d="M538.227 658.005c0-34.788 9.33-55.053 28.845-84.426 1.824 1.116 2.793 1.629 4.035 2.625-20.751 25.749-24.873 49.773-32.88 81.801zm-114.291 34.104c18.339-50.109 24.18-69.684 36.321-103.164-3.45-1.053-26.013-8.955-29.457-10.038 1.23 3 9.339 5.466 23.466 14.127 0 .003-15.267 46.212-30.33 99.075zm24.663-138.378s-10.056 12.42-19.992 24.984c10.164-8.01 17.244-16.932 26.073-24.6-11.982-10.104-31.533-25.572-44.163-36.267 9.972 10.716 38.082 35.883 38.082 35.883zm157.62 162.171.858.006c0-7.02.57-33.174.183-42.423-4.167-72.858-12.642-77.742-27.45-104.952 0 0-12.582-6.237-16.95-9.411-4.002-3.063-116.382-29.766-157.47-47.64 48.033 32.913 138.846 45.081 165.72 64.722 12.996 9.501 30.495 90.807 35.109 139.698zM28.839 576.111c1.626-1.149 1.857-1.098 3.504-2.187 19.515 29.373 29.427 49.293 29.427 84.078-8.004-32.025-13.53-57.048-32.931-81.891zm116.895 16.926c14.127-8.661 22.236-11.127 23.466-14.127-3.444 1.08-26.007 8.985-29.457 10.038 12.144 33.48 17.982 53.055 36.321 103.164-15.063-52.866-30.33-99.075-30.33-99.075zm43.746-75.189c-12.63 10.692-32.181 26.163-44.163 36.267 8.829 7.671 15.912 16.59 26.073 24.6-9.939-12.564-19.992-24.984-19.992-24.984s28.113-25.167 38.082-35.883zM28.893 576.204c26.874-19.641 117.687-31.812 165.72-64.722-41.088 17.874-153.468 44.574-157.47 47.64-4.368 3.174-16.95 9.411-16.95 9.411-14.811 27.21-23.286 32.094-27.45 104.952-.39 9.249.183 35.403.183 42.423l.858-.006c4.611-48.891 22.11-130.197 35.109-139.698z" fill="#233b6d"/><path d="M396.738 499.122c-.147-.879-1.329-1.902-2.214-1.971-.888-.069-1.296 1.374-1.701 2.166-10.647 20.754 1.242 24.999-19.953 87.501-20.364 61.635-22.752 104.586-23.361 127.959l257.571 1.131c0-7.02 1.467-33.174 1.077-42.423-4.167-72.858-12.939-78.339-27.75-105.552 0 0-13.182-6.537-17.55-9.708-14.667-11.226-1.77.069-66.09-18-52.728-15.405-55.575-19.731-74.697-25.05-3.864-1.107-12.171-2.466-20.85-8.553-.795-.555-4.197-5.79-4.482-7.5zM350.922 711.93c11.187-70.692 18.255-89.19 33.888-141.822 10.566-33.312 4.728-52.224 9.762-67.62.264-.804 1.401-.846 1.713-.051 7.302 18.642 27.714 22.968 56.502 51.141-17.439 17.439-21.927 22.14-24.18 25.14 2.592 1.314 16.746 6.687 29.7 11.7-.735 2.301-40.245 114.06-40.71 115.56 30-64.734 33.876-84.633 42.66-117.03-2.436-1.836-23.676-9.636-27.27-10.92 12.822-13.272 16.53-16.188 22.59-23.913 4.866 0-47.622-39.954-50.19-42.633 1.386 1.092 8.256 4.173 9.03 4.473 44.046 15.498 9.195 8.487 105.6 36.003 9.216 2.343 22.065 4.701 31.59 5.637.654.06 16.185 8.181 25.05 11.91-21.567 22.425-35.391 51.399-38.43 88.5 9.657-37.998 14.853-57.87 39.42-86.457 22.86 46.266 20.265 39.585 27.69 143.13-61.836-2.439-156.66-2.997-254.415-2.748zM198.783 506.625c-8.682 6.084-16.986 7.443-20.85 8.553-19.122 5.316-21.969 9.645-74.697 25.05-64.32 18.069-51.426 6.774-66.09 18-4.368 3.174-17.55 9.708-17.55 9.708-14.811 27.21-23.583 32.691-27.75 105.552-.39 9.249 1.077 35.403 1.077 42.423l257.571-1.131c-.609-23.373-2.997-66.324-23.361-127.959-21.195-62.502-9.309-66.747-19.953-87.501-.408-.792-.813-2.235-1.701-2.166-.885.069-2.067 1.092-2.214 1.971-.288 1.707-3.69 6.942-4.482 7.5zM-5.337 714.678c7.428-103.545 4.83-96.864 27.69-143.13 24.564 28.587 29.763 48.459 39.42 86.457-3.039-37.101-16.86-66.075-38.43-88.5 8.865-3.729 24.396-11.85 25.05-11.91 9.525-.936 22.374-3.294 31.59-5.637 96.405-27.516 61.557-20.505 105.6-36.003.774-.303 7.644-3.381 9.03-4.473-2.568 2.679-55.059 42.633-50.19 42.633 6.063 7.725 9.768 10.641 22.59 23.913-3.594 1.284-24.834 9.081-27.27 10.92 8.784 32.397 12.66 52.296 42.66 117.03-.465-1.5-39.975-113.259-40.71-115.56 12.954-5.016 27.108-10.389 29.7-11.7-2.253-3-6.741-7.701-24.18-25.14 28.788-28.173 49.2-32.499 56.502-51.141.312-.798 1.449-.753 1.713.051 5.034 15.396-.807 34.308 9.762 67.62 15.633 52.632 22.701 71.13 33.888 141.822-97.755-.249-192.579.309-254.415 2.748z" fill="#000f30"/><path d="M137.013 253.032c-4.455-7.386-18.981-27.597-30.093-24.762-9.036 2.316-8.919 14.913-9.618 22.365-1.02 10.932-1.392 29.976 1.575 37.704 2.853 7.419 11.88 21.756 17.484 27.225 6.897 6.705 17.91 28.074 19.266 30.291 2.133 3.504 6.411 8.52 12.975 8.124 9.213-.555 17.172-9.261 17.895-13.455 3.903-22.77-17.889-68.274-29.484-87.492z" fill="#93614a" stroke="#652e15" stroke-width="4.5"/><path d="M132.6 298.023c-.429-1.689.021-4.539.462-7.287.399-2.505.774-4.872.546-6.546-.867-6.27-5.745-18.18-8.928-24.636-3.669-7.428-9.597-16.785-17.037-19.197-3.072-.999-5.097.195-6.267 1.404-.864.888-1.059 1.935-.777 2.061.285.123.921-.744 1.851-1.557.762-.666-1.524-.12 0 0-.615 3.12-2.595 18.906-1.23 30.429 1.074 9.066 3.15 15.837 3.789 16.851.093 1.068.249 2.115.48 3.129 3.006 13.23 22.554 30.531 27.102 35.46.84.909 1.722 1.449 1.938 1.227s-.303-1.119-1.137-2.034c-4.494-4.896-23.913-22.143-26.817-34.905-3.081-13.542 11.736-33.621 14.097-37.869 1.203 1.995 2.226 3.909 3.012 5.505.621 1.251 1.302 2.718 2.01 4.305-1.389 2.214-15.354 18.381-11.802 31.323 1.314 4.773 11.466 10.926 15.393 12.609 2.16.93 2.97 2.316 3.912 3.918 1.092 1.872.099 6.687 3.69 8.217.732.312 1.392.438 1.977.438 1.014 0 1.782-.39 2.349-.852.06.813.057 1.857.027 2.823-.036 1.254.141 1.827.444 1.851.309.027.63-.522.669-1.761.051-1.53.042-3.423-.231-4.332-.807-2.667-3.264-5.682-5.871-8.871-2.562-3.135-2.985-9.087-3.651-11.703zm-27.693-11.727c-7.044-20.769 3.849-39.687 5.43-42.537 3.036 1.197 7.686 6.579 9.663 9.705-1.44 2.499-14.799 18.861-15.093 32.832zm32.409 33.096c-3.252-1.386-2.118-5.952-3.168-7.752-.954-1.626-1.938-3.306-4.437-4.38-.54-.234-1.137-.588-1.749-.996-8.046-18.225.879-26.19 3.117-27.819.687 2.226 1.197 4.269 1.428 5.91.204 1.5-.177 3.894-.543 6.204-.459 2.865-.93 5.832-.441 7.752.732 2.859 1.233 8.91 3.873 12.144 2.343 2.868 4.749 5.826 5.571 8.238-.354.48-1.467 1.632-3.651.699z" fill="#652e15"/><path d="M462.198 253.032c4.458-7.386 18.984-27.597 30.093-24.762 9.036 2.316 8.919 14.913 9.621 22.365 1.02 10.932 1.389 29.976-1.575 37.704-2.853 7.419-11.883 21.756-17.484 27.225-6.897 6.705-17.913 28.074-19.266 30.291-2.133 3.504-6.411 8.52-12.978 8.124-9.21-.555-17.169-9.261-17.895-13.455-3.9-22.77 17.895-68.274 29.484-87.492z" fill="#93614a" stroke="#652e15" stroke-width="4.5"/><path d="M462.966 309.729c-2.607 3.189-5.064 6.204-5.871 8.871-.276.912-.282 2.805-.234 4.332.042 1.239.363 1.788.675 1.761.306-.024.48-.597.444-1.851-.03-.966-.036-2.01.024-2.823.567.462 1.335.852 2.349.852.585 0 1.248-.126 1.98-.438 3.585-1.533 2.595-6.348 3.687-8.217.942-1.602 1.752-2.991 3.915-3.918 3.927-1.683 14.079-7.833 15.393-12.609 3.552-12.942-10.413-29.112-11.802-31.323.702-1.587 1.389-3.054 2.004-4.305.792-1.596 1.812-3.513 3.018-5.505 2.361 4.248 17.175 24.324 14.097 37.869-2.907 12.762-22.323 30.009-26.817 34.905-.837.915-1.359 1.812-1.143 2.034.222.222 1.101-.318 1.938-1.227 4.548-4.929 24.093-22.23 27.099-35.46.234-1.014.393-2.061.486-3.129.633-1.011 2.712-7.782 3.786-16.851 1.365-11.523-.615-27.309-1.23-30.429 1.524-.12-.762-.666 0 0 .933.813 1.569 1.68 1.851 1.557.282-.126.087-1.17-.774-2.061-1.173-1.209-3.198-2.403-6.27-1.404-7.44 2.412-13.371 11.769-17.04 19.197-3.183 6.456-8.058 18.366-8.925 24.636-.228 1.674.147 4.041.546 6.546.438 2.748.891 5.598.462 7.287-.666 2.613-1.086 8.565-3.648 11.703zm16.248-56.265c1.98-3.126 6.627-8.505 9.663-9.705 1.581 2.85 12.474 21.768 5.433 42.537-.294-13.971-13.653-30.333-15.096-32.832zm-20.964 65.223c.819-2.412 3.228-5.37 5.571-8.238 2.637-3.234 3.141-9.285 3.873-12.144.486-1.92.018-4.887-.438-7.752-.369-2.31-.75-4.704-.546-6.204.228-1.641.738-3.684 1.425-5.91 2.238 1.629 11.163 9.597 3.117 27.819-.609.408-1.206.762-1.752.996-2.496 1.074-3.48 2.754-4.437 4.38-1.05 1.8.087 6.369-3.165 7.752-2.184.939-3.297-.213-3.648-.699z" fill="#652e15"/><path d="M300.006 2.601c-100.863-.162-182.448 82.428-182.604 184.497-.024 16.209 2.007 31.935 5.859 46.923h.012c.033.162 26.139 117.723 43.557 153.525 18.219 37.461 71.442 98.055 133.176 98.055 61.746 0 114.96-60.591 133.176-98.055 17.415-35.805 43.521-153.366 43.557-153.525h.015c3.849-14.991 5.883-30.714 5.856-46.923C482.457 85.029 400.869 2.439 300.006 2.601z" fill="#93614a"/><path d="M362.262 13.536c64.323 28.467 109.233 93.405 109.35 169.089.024 16.209-2.007 31.935-5.859 46.923h-.015c-.033.162-26.139 117.72-43.557 153.531-17.127 35.214-64.824 97.407-122.175 97.407s-105.048-62.19-122.175-97.407c-17.418-35.811-43.521-153.369-43.557-153.531h-.012c-3.852-14.991-5.886-30.714-5.859-46.923.114-75.687 45.024-140.622 109.35-169.089-70.158 25.65-120.228 93.624-120.351 173.562-.024 16.209 2.007 31.935 5.859 46.923h.012c.033.162 26.139 117.723 43.557 153.525 18.219 37.461 71.442 98.055 133.176 98.055 61.737 0 114.957-60.591 133.176-98.055 17.415-35.805 43.521-153.366 43.557-153.525h.015c3.849-14.991 5.883-30.714 5.856-46.923-.12-79.938-50.19-147.912-120.348-173.562z" fill="#8b573f"/><path d="M300.006 2.601c-100.863-.162-182.448 82.428-182.604 184.497-.024 16.209 2.007 31.935 5.859 46.923h.012c.033.162 26.139 117.723 43.557 153.525 18.219 37.461 71.442 98.055 133.176 98.055 61.746 0 114.96-60.591 133.176-98.055 17.415-35.805 43.521-153.366 43.557-153.525h.015c3.849-14.991 5.883-30.714 5.856-46.923C482.457 85.029 400.869 2.439 300.006 2.601z" fill="none" stroke="#652e15" stroke-width="4.5"/><path d="m96.227 139.237 8.297-.207c-.961 4.47-7.64 3.828-8.297.207z" fill="url(#b)" transform="scale(3)"/><path d="M289.029 418.56c-1.113-.15-.945-1.737.24-1.626.129.018 12.924 1.638 23.634-.645 1.158-.225 1.5 1.365.39 1.602-8.391 1.794-19.248 1.374-24.264.669zm11.22-10.71c-4.509 0-8.88-1.563-13.272-2.328-4.92-.861-9.822-.123-14.745.312-5.028.447-15.999-.039-19.095-1.998-1.734-1.101-1.41-3.663.543-4.347 1.842-.66 4.713.708 6.573 1.041 8.616 1.545 13.152-.102 20.706-.354 11.553-.348 12.78 4.503 27.192 1.59 15.495-3.132 22.473-.762 33.591-4.11 1.524-.462 3.336-1.68 4.935-.858 1.845.954 1.755 3.555-.147 4.392-10.218 4.506-21.522 2.685-32.865 4.578-4.446.738-8.877 2.082-13.416 2.082z" fill="#652e15"/><path d="M60.432 80.957c1.226-1.179 9.091-2.674 13.631-2.075 7.183.947 13 7.285 13 7.285s-4.836 3.083-13.61 3.56c-5.78.315-11.593-3.418-13.021-8.77z" fill="url(#c)" transform="scale(3)"/><path d="M240.114 256.764c-2.607 9.576-12.486 15.219-22.083 12.588-9.591-2.628-15.252-12.534-12.642-22.113 2.607-9.585 12.504-15.228 22.095-12.594 9.582 2.625 15.243 12.531 12.63 22.119z" fill="#4e60a3" stroke="#152975" stroke-width="1.5"/><path d="M239.679 253.113c-1.323 10.635-9.216 16.176-17.856 15.597-7.974-.537-15.102-6.42-15.762-16.575 2.757-.792 6.42.495 9.633.003-.009.117-.051.222-.054.339-.252 3.9 2.874 7.299 6.987 7.575 4.122.276 7.668-2.676 7.923-6.573.027-.507-.003-1.008-.081-1.488 2.862.432 6.36.006 9.21 1.122z" fill="#6777b2"/><path d="M225.351 245.994c-3.957-1.131-8.001 1.128-9.021 5.073-1.023 3.924 1.359 8.034 5.313 9.168 3.966 1.137 8.007-1.125 9.033-5.052 1.032-3.948-1.362-8.055-5.325-9.189z" opacity=".9"/><path d="M225.351 245.994c-3.957-1.131-8.001 1.128-9.021 5.073-1.023 3.924 1.359 8.034 5.313 9.168 3.966 1.137 8.007-1.125 9.033-5.052 1.032-3.948-1.362-8.055-5.325-9.189z" fill="none" stroke="#152975" stroke-width="2.25"/><path d="M214.23 262.971c-.375 1.311-2.418.753-2.043-.564.363-1.269 1.338-2.049 1.959-3.165.663-1.194 2.493-.126 1.827 1.068-.51.924-1.452 1.632-1.743 2.661zm3.258-2.091c-.564.657-1.302 3.09-1.62 3.885-.51 1.266 1.539 1.812 2.043.564.174-.435.768-2.589 1.077-2.949.882-1.032-.609-2.538-1.5-1.5zm4.41 6.264c1.107-1.275.996-2.736.972-4.323-.021-1.365-2.139-1.365-2.118 0 .012.879.276 2.103-.351 2.826-.891 1.026.6 2.529 1.497 1.497zm2.163-4.587c.015 1.314.18 2.595.567 3.855.402 1.302 2.445.747 2.043-.564-.336-1.086-.477-2.157-.492-3.291-.015-1.365-2.133-1.368-2.118 0z" fill="#fff" opacity=".5"/><path d="M235.341 248.913c-2.085 1.251-5.22.126-6.999-2.517-1.776-2.643-1.509-5.802.579-7.047 2.082-1.257 5.226-.129 6.99 2.514 1.776 2.643 1.518 5.799-.57 7.05z" fill="#fff" opacity=".8"/><path d="M165.396 255c0 41.424 38.004 62.997 54 62.997 29.82 0 54-21.573 54-62.997 0-41.427-24.18-75.003-54-75.003s-54 33.576-54 75.003zm15.9-12.129c3.678-3.537 27.273-8.022 40.893-6.225 21.549 2.841 39 21.855 39 21.855s-14.508 9.249-40.83 10.68c-17.34.945-34.779-10.254-39.063-26.31z" fill="#93614a"/><path d="M73.981 93.592c9.412 2.223 18.451-1.61 20.194-8.565 1.738-6.956-4.478-14.395-13.892-16.622-9.414-2.224-18.453 1.609-20.195 8.565-1.738 6.957 4.476 14.395 13.893 16.622zM60.432 80.957c1.226-1.179 9.091-2.674 13.631-2.075 7.183.947 13 7.285 13 7.285s-4.836 3.083-13.61 3.56c-5.78.315-11.593-3.418-13.021-8.77z" fill="url(#d)" transform="scale(3)"/><path d="M60.432 80.957c1.226-1.179 9.091-2.674 13.631-2.075 7.183.947 13 7.285 13 7.285s-4.836 3.083-13.61 3.56c-5.78.315-11.593-3.418-13.021-8.77z" fill="url(#e)" transform="scale(3)"/><path d="M259.896 247.374c-19.506-12.753-12.162-9.27-48.69-20.109 10.032 1.5 28.716 6.198 35.121 9.96 3.489 1.962 10.569 7.527 13.569 10.149z" fill="#652e15"/><path d="M176.559 242.658c5.841 14.778 29.202 41.883 87.855 16.599-9.291-10.08-33.015-27.339-54.477-27.189-17.979.123-28.026 5.727-33.378 10.59zm4.737.564c3.678-3.411 27.273-7.74 40.893-6.003 21.549 2.739 39 21.078 39 21.078s-14.508 8.922-40.83 10.302c-17.34.909-34.779-9.891-39.063-25.377z"/><path d="M139.169 80.957c-1.226-1.179-9.091-2.674-13.631-2.075-7.183.947-13 7.285-13 7.285s4.836 3.083 13.61 3.56c5.78.315 11.592-3.418 13.021-8.77z" fill="url(#f)" transform="scale(3)"/><path d="M394.614 256.764c-2.607 9.576-12.486 15.219-22.086 12.588-9.588-2.628-15.252-12.534-12.642-22.113 2.607-9.585 12.507-15.228 22.095-12.594 9.585 2.625 15.243 12.531 12.633 22.119z" fill="#4e60a3" stroke="#152975" stroke-width="1.5"/><path d="M394.179 253.113c-1.32 10.635-9.216 16.176-17.853 15.597-7.971-.537-15.102-6.42-15.765-16.575 2.757-.792 6.423.495 9.636.003-.012.117-.051.222-.057.339-.255 3.9 2.874 7.299 6.987 7.575 4.122.276 7.665-2.676 7.92-6.573.027-.507-.003-1.008-.078-1.488 2.862.432 6.36.006 9.21 1.122z" fill="#6777b2"/><path d="M379.851 245.994c-3.957-1.131-7.998 1.128-9.021 5.073-1.023 3.924 1.359 8.034 5.313 9.168 3.966 1.137 8.007-1.125 9.033-5.052 1.032-3.948-1.362-8.055-5.325-9.189z" opacity=".9"/><path d="M379.851 245.994c-3.957-1.131-7.998 1.128-9.021 5.073-1.023 3.924 1.359 8.034 5.313 9.168 3.966 1.137 8.007-1.125 9.033-5.052 1.032-3.948-1.362-8.055-5.325-9.189z" fill="none" stroke="#152975" stroke-width="2.25"/><path d="M368.73 262.971c-.375 1.311-2.418.753-2.046-.564.363-1.269 1.341-2.049 1.962-3.165.66-1.194 2.49-.126 1.827 1.068-.51.924-1.452 1.632-1.743 2.661zm3.258-2.091c-.564.657-1.302 3.09-1.62 3.885-.513 1.266 1.539 1.812 2.043.564.177-.435.768-2.589 1.074-2.949.885-1.032-.606-2.538-1.497-1.5zm4.41 6.264c1.107-1.275.996-2.736.972-4.323-.021-1.365-2.139-1.365-2.118 0 .012.879.276 2.103-.351 2.826-.891 1.026.603 2.529 1.497 1.497zm2.166-4.587c.015 1.314.177 2.595.564 3.855.405 1.302 2.445.747 2.043-.564-.336-1.086-.477-2.157-.492-3.291-.015-1.365-2.133-1.368-2.115 0z" fill="#fff" opacity=".5"/><path d="M389.841 248.913c-2.085 1.251-5.22.126-6.999-2.517-1.776-2.643-1.512-5.802.576-7.047 2.085-1.257 5.226-.129 6.99 2.514 1.779 2.643 1.521 5.799-.567 7.05z" fill="#fff" opacity=".8"/><path d="M379.407 179.997c-29.82 0-54 33.579-54 75.003s24.18 62.997 54 62.997c21.603 0 54-21.573 54-62.997 0-41.427-24.18-75.003-54-75.003zm-.963 89.184c-26.322-1.428-40.83-10.68-40.83-10.68s17.451-19.014 39-21.855c13.62-1.8 37.215 2.688 40.893 6.225-4.287 16.056-21.723 27.255-39.063 26.31z" fill="#93614a"/><path d="M139.512 76.971c-1.742-6.956-10.781-10.79-20.195-8.565-9.414 2.227-15.63 9.666-13.892 16.622 1.743 6.955 10.782 10.788 20.194 8.565 9.417-2.228 15.632-9.666 13.893-16.622zm-13.364 12.756c-8.774-.476-13.61-3.56-13.61-3.56s5.817-6.338 13-7.285c4.54-.6 12.405.896 13.631 2.075-1.429 5.352-7.241 9.085-13.021 8.77z" fill="url(#g)" transform="scale(3)"/><path d="M139.169 80.957c-1.226-1.179-9.091-2.674-13.631-2.075-7.183.947-13 7.285-13 7.285s4.836 3.083 13.61 3.56c5.78.315 11.592-3.418 13.021-8.77z" fill="url(#h)" transform="scale(3)"/><path d="M338.907 247.374c19.506-12.753 12.162-9.27 48.69-20.109-10.032 1.5-28.716 6.198-35.121 9.96-3.492 1.962-10.569 7.527-13.569 10.149z" fill="#652e15"/><path d="M388.866 232.065c-21.462-.15-45.189 17.109-54.477 27.189 58.653 25.284 82.014-1.821 87.855-16.599-5.352-4.86-15.402-10.464-33.378-10.59zm-10.422 36.534c-26.322-1.377-40.83-10.302-40.83-10.302s17.451-18.339 39-21.078c13.62-1.737 37.215 2.592 40.893 6.003-4.287 15.486-21.723 26.286-39.063 25.377z"/><path d="M141 113.974c.035 22.622-18.292 40.994-40.938 41.025-22.642.037-41.028-18.273-41.063-40.9-.035-22.62 18.292-41.064 40.937-41.1 22.643-.035 41.031 18.35 41.064 40.975z" fill="url(#i)" transform="scale(3)"/><path d="M137.5 53.999c0 20.711-16.789 37.5-37.499 37.5-20.711 0-37.501-16.789-37.501-37.5s16.79-37.5 37.501-37.5c20.71 0 37.499 16.789 37.499 37.5z" fill="url(#j)" transform="scale(3)"/><path d="M162 222.567c29.862-29.922 50.283-17.745 91.767-9.792 2.535.486 18.96 4.617 15.93 10.407-1.449 2.772-6.108 2.442-8.709 2.394-41.064-.768-61.032-29.985-98.988-3.009zM438 222.567c-29.859-29.922-50.283-17.745-91.767-9.792-2.538.486-18.96 4.617-15.933 10.407 1.449 2.772 6.108 2.442 8.709 2.394 41.064-.768 61.035-29.985 98.991-3.009z" fill="#2a232b"/><path d="M273.345 346.497c-2.634 6.192 17.802 12.876 25.557 13.287 8.4.441 31.938-8.7 27.948-14.976-4.197-6.585-19.929-.858-26.718-.858-6.756-.003-23.259-5.715-26.787 2.547z" fill="#844e35"/><path d="M305.571 351.174c-.69-2.277 5.628-4.752 7.971-5.082 3.303-.48 10.08 2.406 9.474 4.776-.552 2.094-6.444-1.599-8.58-1.287-2.202.321-8.211 3.726-8.865 1.593zm-20.649-.741c2.904 0 7.212 1.869 8.004.222.945-1.965-6.417-4.383-8.58-4.116-1.788.21-8.199 3.945-7.317 5.517.822 1.443 4.065-1.623 7.893-1.623z" fill="#652e15"/><path d="M300.267 335.997c1.821 0 5.226-2.22 5.376-6.69.603-18.024-2.868-71.499-5.376-71.31-2.34.177-6.801 52.911-5.844 71.31.237 4.506 3.789 6.69 5.844 6.69z" fill="#b28e7d" opacity=".2"/><path d="M300 54.39zM300 54.39zM147.975 334.668c-16.254-9.381-27.426-19.881-38.679-45.453-1.527-3.867-5.679-16.758-5.679-19.749-6.57-5.415-13.824-21.42-16.995-29.343-9.006-30.888-7.851-67.5-1.521-85.014l-1.065-.531c-7.755 11.877-9.849 22.884-11.697 33.522-8.253-27.198-3.711-58.101 17.298-84.783-9.657 2.418-13.431 4.323-22.185 2.688 16.827-8.769 67.092-45.213 80.871-69.93-11.856 3.039-24.633 9.288-34.401 15.723 12.357-38.91 62.568-71.001 103.257-67.467-7.341-6.522-13.686-14.85-18.915-22.893 11.073 3.636 30.075 11.058 48.612 15.612 63.756 13.365 45.858 7.455 104.826-13.758-2.433 8.736-2.412 9.21-7.629 21.609 42.621-16.842 83.67.69 96.54 24.657h.027c.186.345.366.696.546 1.044-5.772-1.941-10.74-2.445-16.743-2.787 10.662 18.363 17.799 20.082 52.536 30.426 3.594 1.128 9.447 2.61 14.34 3.468-7.257 5.184-12.333 6.48-21.141 7.617 13.986 5.952 22.131 16.677 28.293 30.792 8.922 21.285 10.467 38.403 8.88 57.996-3.864-5.922-9.075-14.688-14.355-21.9l-1.029.606c13.146 28.383 8.58 51.858 58.482 85.938-4.305.963-9.177 1.467-14.187 1.467-8.742 0-16.29-1.428-23.664-3.885 2.106 26.043.513 38.775-2.1 49.98-6.087 22.926-18.165 39.324-40.893 44.844-13.26 17.328-26.829 24.51-36.243 26.127 6.621-10.944 22.092-40.824 24.744-52.596l-1.254-2.229c-28.527-7.05-48.627-28.686-52.695-59.643-5.841 8.772-11.307 15.318-28.446 28.467-1.395-34.674-18.435-79.227-39.75-107.157-.114 9.678.198 10.428 2.664 23.499h.021c3.156 15.33 12.66 34.77 15.831 44.154-9.318-5.313-17.055-8.883-27.237-24.945-4.953-7.791-10.944-20.997-13.644-30.06l-1.17.099c-.696 5.733-.615 9.339-.573 11.274 0 6.399 8.442 38.625 13.965 47.997-19.71-9.927-28.542-26.232-35.1-42.384l-1.155.189c-.636 9.927.453 32.109 4.758 48.96-15.843-4.773-25.347-11.679-33.687-24.411-5.517-10.338-5.766-14.781-6.948-24.96-17.79 23.625-46.932 43.464-66.84 49.677-.093.027-.282.081-.507.144 2.7-5.343 5.535-10.584 8.28-15.666 7.533-13.935 11.781-21.999 16.968-34.917-48.12 33.252-57.588 84.204-45.153 140.622-8.394-5.382-9.741-6.468-16.74-13.887 1.626 10.971 1.095 27.366-5.379 42.576l-.099.234.099.234c3.612 8.514 2.412 6.126 3.66 8.106z" fill="#2a232b"/><path d="M375.612 233.892c-1.734-33.57-17.769-75.882-38.037-103.53 42.126 11.493 53.25 78.504 38.037 103.53zm-57.579-124.716c-10.836 21.666-1.284 65.103 36.438 86.613-16.896-20.067-31.614-40.212-36.438-86.613zm7.326 90.123c-21.576-24.111-31.068-57.522-31.041-87.699-10.545 18.762-6.42 69.465 31.497 88.554-.147-.249-.303-.576-.456-.855zM267 111c-13.098 21.309-28.374 79.143 27.318 95.919C261.144 179.568 261 149.712 267 111zm-80.67 96.369c.225-.063.414-.12.507-.144 19.284-6.015 49.917-28.704 67.818-51.345 1.158-7.572 1.08-13.437 2.628-20.877-13.872 25.518-54.294 60.786-70.953 72.366zm-28.257 60.072c-20.721-32.469-3.57-94.284 3.927-100.716-12.075 7.431-38.127 75.957-3.927 100.716zm330.936-52.8c-2.706 45.615-27.987 77.244-55.113 106.539 31.056-5.931 64.209-56.508 55.113-106.539zM374.238 39.024c43.2 23.82 54.174 35.73 69.762 89.976 0-39.111-23.919-93.039-69.762-89.976zM329.232 30c-10.026 40.8 8.343 69 38.571 81.6-19.821-18.645-39.468-52.539-38.571-81.6zM105.873 170.049C126.099 171.186 156.081 159.942 162 135c-14.025 18.627-26.226 29.058-56.127 35.049zM356.796 19.5c43.875-16.899 72.375-13.356 84.387-8.898-10.419-6.687-51.576-18.147-84.387 8.898zM116.457 48.105c30.378-18.636 43.965-15.837 60.759-16.818-22.953-9.468-39.984-3.153-60.759 16.818zm298.812-20.982c32.244 18.564 38.937 29.061 76.047 14.586C471 48.486 444 41.445 415.269 27.123zm-155.052-7.755c18.717.009 30.705 6.996 39.783 13.821-4.95-8.97-24.861-21.282-39.783-13.821zm171.201 122.589c-5.544 33.801 15.051 48.246 43.335 52.773-17.916-5.433-37.791-24.237-43.335-52.773zm-249.753-9.648c26.406-13.287 61.083-44.226 61.083-72.612-12.516 24.633-31.407 51.303-61.083 72.612zm368.058 69.942C513.138 205.524 493.368 175.164 471 150c8.403 22.404 24.651 36.966 43.857 51.006 6.669 2.016 13.545 3.219 21.402 3.219 5.01 0 9.882-.504 14.187-1.467-.252-.171-.477-.336-.723-.507zm-437.196-.819c-10.86 36.03-18.171 92.565 35.448 133.236-30.573-34.668-40.746-90.855-35.448-133.236zM253.491 35.061c-36.531.753-65.991 3.939-84.3 49.269 39.375-37.506 56.703-40.122 84.3-49.269zM72.357 173.157c5.19-19.959 18.828-33.741 39.234-41.325-25.773.477-35.154 12.726-39.234 41.325zm341.133 3.954c-20.649 32.886 2.22 74.856 43.047 88.185-41.013-42.252-42.204-53.37-43.047-88.185zm93.165-41.385C498.18 99 481.746 78.705 456.837 92.82c25.773-8.49 31.449 18.78 49.818 42.906zM394.338 215.19c30.177-30.42 20.001-75.675-4.893-94.911 19.674 40.056 14.937 61.848 4.893 94.911z" fill="#1b141c"/><path d="M330.609 86.205c-23.256-16.02-34.317-28.902-51-50.001 15.912 14.409 35.703 34.422 51 50.001zm40.998-15.999c38.025 8.313 31.152 4.272 56.001 27.999-17.856-25.56-22.785-26.337-56.001-27.999zm12 30c21.237 9.903 34.965 47.778 39 69.999.249-26.4-13.446-62.994-39-69.999zm37.002 81.999c-1.314 25.701 9.24 35.805 21.999 65.001-6.255-27.372-18.402-36.336-21.999-65.001zm55.998 22.002c-2.121 25.263.69 43.881-10.998 63.999 15.795-18.705 13.239-39.723 10.998-63.999zm27-1.002c6.45 17.916-1.596 52.263-10.998 68.001 15.039-17.631 21.678-49.176 10.998-68.001zm-45-102c34.944 6.09 14.079 54.477 58.002 81.999-38.361-36.54-20.88-82.554-58.002-81.999zm-18.999-42.999c32.124 3.945 46.989 16.17 59.001 42-7.488-30.561-28.881-43.887-59.001-42zm-93.999 65.001c28.686 19.158 39.522 52.824 39.999 87 6.852-34.104-4.995-73.014-39.999-87zM344.607-3.795c39.738-4.395 41.091-5.793 67.002.999-18.264-9.606-32.232-12.447-67.002-.999zm-120.999-18c27.522 20.343 87.963 37.887 113.001-3-26.721 30.126-76.905 20.826-113.001 3zm51.999 35.001c15.162-2.25 23.829 1.629 40.002 23.001-8.157-18.234-21.279-29.946-40.002-23.001zm-27.999 12c-25.548-2.961-48.372-2.154-59.001 24.999 14.826-22.332 28.062-21.972 59.001-24.999zm-104.001-.999c14.049-12.138 42.594-30.438 66.999-27-23.316-8.604-51.867 7.083-66.999 27zm-39 64.998c24.717-7.863 50.157-20.319 62.001-42.999-14.073 16.893-36.666 28.29-62.001 42.999zm45-1.998c-3.585 38.091-24.201 48.342-42 77.001 29.301-29.454 45.93-42.651 42-77.001zm56.001 54c-36.876 3.807-52.089 55.347-50.001 92.001 5.847-33.894 18.216-81.525 50.001-92.001zm20.001-22.002c-3.045 22.941-5.82 34.428-15.999 63 14.703-23.349 17.553-41.379 15.999-63zm63.999-12c-7.26 24.744-12.393 50.403-2.001 74.001-4.539-22.143-.732-38.913 2.001-74.001zm-26.001-60.999c-7.917 32.838-12.054 45.309-27 66.999 20.328-19.332 26.04-38.088 27-66.999zm52.002 54.999c-12.543 19.527-13.392 36.435-8.001 59.001-.468-23.733-.192-37.446 8.001-59.001zm16.998 8.001c-7.482 19.227-6.081 34.044 2.001 50.001-4.344-16.428-5.571-26.616-2.001-50.001zm-186 60.999c-16.242 17.961-14.538 43.962-12 68.001 3.081-28.155.6-48.411 12-68.001zm-25.998 22.002c-8.031 22.704-9.468 53.682 3.999 75-7.794-21.33-6.525-53.802-3.999-75zm-22.002-48c-12.933 29.886-15.84 53.904-2.001 90.999-4.854-32.196-6.171-51.504 2.001-90.999zm-19.998 0c33.168-52.794 53.526-35.697 66.999-62.001C125.76 105.252 99 88.923 78.609 144.207zm138-86.001c.357 18.486-8.07 32.478-15 53.001 9.957-16.698 19.365-34.167 15-53.001zm202.998-45c8.448 17.844 29.442 27.165 48 27-14.718-3.048-37.074-12.648-48-27zm17.001 126.999c-.774 16.182 10.689 32.748 24 41.001-8.667-7.824-21.627-26.271-24-41.001z" fill="#3a353a"/><path d="M551.907 203.025c-18.789-12.768-21.99-16.404-32.937-28.68 0 0-.39-.45-1.08-1.23-20.085-28.119-12.543-28.833-25.38-56.55 5.676 7.755 11.208 17.214 15.303 23.34.63-9.039 3.681-30.267-8.793-60.03-5.475-12.54-14.04-24.9-26.577-30.24 12.321-1.593 17.43-6.297 20.43-8.28-5.187-.801-11.862-2.481-15.72-3.69-33.579-10.023-41.562-11.865-51.63-29.19 7.779.444 12.279 1.509 16.86 3.18-.42-.87-.9-1.8-1.38-2.7h-.03c-5.055-9.402-17.082-20.193-32.433-26.13-19.98-6.492-40.341-8.097-63.357.99 4.959-11.76 4.917-12.6 7.41-21.48-60.255 21.519-41.607 27.537-105.57 14.13-19.383-4.761-39.591-12.78-50.16-16.11 3.426 5.445 11.412 16.86 18.57 23.22-36.666-3.192-90.351 27.558-102.57 69.66 11.772-8.013 25.74-14.043 34.26-16.23-12.909 23.142-64.89 61.296-81.48 69.24 10.101 2.265 14.331.108 22.44-1.92-16.542 21-24.582 48.948-17.76 78.45v.03c.753 3.198 1.194 4.746 2.19 7.83 1.965-11.286 3.75-23.049 12.03-35.73-5.949 16.458-7.935 52.998 1.53 85.44 3.42 8.547 10.593 24.093 16.95 29.4 0 1.194 2.619 11.829 5.73 19.71 11.235 25.524 22.377 36.501 40.92 46.86-3.213-5.526-.456.258-4.8-9.99 4.599-10.806 6.06-19.95 6.06-30.75.072-3.192-.246-9.486-.36-10.26 6.36 6.747 8.547 8.112 16.77 13.38-19.656-86.7 20.19-124.56 42.942-140.283-7.206 17.967-16.689 33.081-25.092 49.893.48-.123 1.56-.435 1.8-.51h.03c22.278-6.948 51.336-28.914 66.24-48.69 1.041 8.958 1.434 13.545 6.87 23.73 8.973 13.692 19.119 20.331 35.04 24.96-4.665-17.472-5.61-40.443-5.01-49.8 7.197 17.727 16.29 33.282 36.18 43.02h.03c.42.21.87.42 1.26.63-5.163-5.202-15.18-42.201-15.18-49.5-.048-2.115-.108-5.61.567-11.19 2.835 9.531 8.916 22.665 13.71 30.21 10.728 16.917 18.687 20.058 28.8 25.92-3.33-10.626-10.161-22.692-15.447-42.03-.663-2.4-.933-4.02-.96-4.02-2.07-11.019-2.667-13.176-2.58-21.15 18.714 24.513 37.479 69.525 38.61 106.59 10.329-7.896 20.688-16.089 28.62-27.99 4.071 30.849 25.731 51.78 52.683 58.5.327.6.687 1.2 1.02 1.8-2.472 11.064-18.162 41.82-25.29 53.28 9.441-1.08 23.871-8.265 37.77-26.37 22.848-5.538 35.001-22.155 41.13-45.24 2.304-9.873 4.338-22.962 2.187-49.26 13.77 4.593 28.533 4.38 38.634 1.83zm-401.64 78.48c-.564-6.831-1.62-13.824-3.12-20.7 2.631 3 4.809 5.388 10.89 10.2.483 6.726 1.374 13.854 2.88 20.91-3-2.616-7.878-6.204-10.65-10.41zm301.11-39.75c3.831 6.303 8.985 11.118 6.933 22.83-1.437-3-4.566-11.97-6.933-22.83zm60.183-41.28c-1.365 37.278-3.252 79.323-40.143 93.27 23.868-33.534 17.934-48.435 18.903-68.28-2.442 13.731-.309 3.987-2.97 25.23-3.891 19.92-25.362 58.581-50.1 68.43 1.833-2.574 5.679-8.814 8.13-12.687 13.062-21.213 17.697-33.999 18.12-48.63-.06-1.02-.18-1.62-.18-1.62-1.008-8.004-7.614-16.074-13.32-21.78-.717-4.485-3.342-23.118-4.56-42.84-.807 11.1-1.014 26.907.597 39l.033.03c2.586 17.667 6.732 30.624 9.087 33.84-4.653-1.869-5.31-2.343-8.31-3.96-26.166-14.46-34.86-29.616-40.38-56.64 4.788-8.172 5.214-13.128 6.66-19.44v-.06c1.542-4.701-1.68-28.773-1.68-31.83 0-.36.06-.6.087-.66-.255.261-.288 2.424-.3 2.79-.687 21.54 1.698 28.425-8.34 48.03-.837 1.35-1.56 2.88-2.55 4.26-6.501 8.358-6.021 8.469-23.34 24.72 2.037-33.741-16.167-80.967-40.437-104.25.33-11.22-.237-14.91-2.043-17.91 2.118 5.199.714 11.25 0 17.88-1.719 14.169.531 34.998 16.11 64.83-18.567-14.313-30.369-38.151-36.36-60.12 1.689-10.563 2.718-13.875 4.14-26.04-4.08 17.892-9.3 27.924-9.3 46.2.402 10.305 7.293 33.123 14.52 45.09-12.357-8.874-26.304-27.234-32.85-50.67 1.791-23.808 4.464-37.128 6.42-49.83-10.554 34.233-10.713 47.127-11.55 62.46-.06 3.84.03 7.71.03 10.59.03 1.44.03 2.64.06 3.51.09.84.12 1.32.12 1.32 1.635 16.326 4.488 26.064 6.12 30.12-14.853-6.528-29.793-20.811-33.3-38.61-4.848-22.59 7.119-52.86 8.04-55.86-2.559 5.118-13.185 23.883-13.53 44.91-6.078 6.771-13.887 14.25-16.89 16.92-16.815 15.249-32.94 26.115-47.88 33.57.39-.6.81-1.26 1.23-1.92l-.03.09c18.432-27.132 29.895-50.022 30.54-82.65-1.74 12.714-4.803 23.7-8.598 33.768-31.38 16.44-56.259 55.71-53.772 111.702-.45-.51-.93-.99-1.41-1.5-21.192-20.88-14.088-42.885-8.01-67.47 6.963-27.699 11.13-28.53 14.13-31.53-10.38 6.207-16.788 26.457-20.46 38.55-8.187 26.379-4.437 40.566.84 49.95 4.098 27.492 6.684 44.142.63 68.37-3.648-8.205-8.664-29.349-9.36-40.02-2.019-17.898-2.289-23.883-3.75-45.78-1.482 22.215-3.885 60.123 10.86 89.61-31.047-29.568-44.592-74.859-27.81-128.58-10.062 21.855-14.622 41.604-11.52 65.28-19.203-33.48-21.063-80.94-12.42-115.44 7.836-9.447 17.052-13.704 23.04-16.71-18.423 6.714-21.318 10.212-28.92 18.57-5.286 7.383-8.814 14.115-11.52 24.36-1.608-24.507 4.635-48.48 22.2-71.91 16.959-4.524 32.412-14.016 46.2-24.36-20.325 11.208-32.835 17.556-53.64 23.43-2.658.786-10.209 3.006-13.02 3.36 22.371-11.598 63.804-41.217 75.15-68.43 11.91-3.558 19.047-3.999 27.12-4.98-21.423 0-36.57 1.818-59.67 16.59 13.851-27.18 58.926-62.22 101.88-62.22 8.541 6.639 20.154 10.869 30.57 16.8-6.507-5.559-22.239-13.92-27.84-18.33 0-.03 0-.03-.03 0-3.573-2.85-5.19-2.946-17.67-18.81 28.218 13.419 38.232 15.93 49.71 18.6 56.199 12.786 51.657 2.994 95.67-17.46-1.062 3.036-7.512 20.919-9.84 23.19-6.228 11.007-13.782 19.656-25.53 25.53 13.44-4.455 22.989-14.169 29.61-27.03 1.95-.975 14.181-4.095 19.11-4.62 24.654-2.658 35.397-.432 52.92 7.5 3 1.665 14.106 7.317 21.783 16.23-20.154-6.303-51.825 2.085-71.763 8.76 5.133-.978 31.365-6.468 46.86-7.62 5.673-.48 11.283-.24 11.283-.27.27 0 .54.03.81.03 7.866 16.353 12.6 22.248 52.59 31.98 4.116.954 8.514 1.482 11.49 1.86-6.945 3.078-10.782 3.834-18.96 4.53-31.599.642-36.456-14.403-55.8-20.28 20.406 9.093 19.722 23.4 56.91 23.4 10.929 4.065 20.52 20.388 25.317 31.47 6.864 16.455 9.951 34.746 10.71 52.56-4.836-8.832-23.124-37.143-33.21-40.71-2.283-.891-4.2-.912-6.42-.69 6.201 0 10.497 3.726 14.13 8.79h.03c7.641 11.133 11.814 27.303 15.75 40.8 0 0 .183.6.48 1.62 7.596 26.442 24.288 45.249 47.313 57.99-48.402 2.142-53.013-28.584-76.803-54.96 13.722 18.819 20.742 43.836 44.046 53.727zm-39.873-9.75c-7.731-18.708-3.048-11.373-12.663-30.45 10.563 13.266 11.34 23.55 17.19 35.31-21.744-5.808-44.4-28.092-45-52.74-.12-2.34-.183-3.78-.183-3.78 4.266 25.533 18.861 40.839 40.656 51.66zm-26.04-50.607c-3.54-10.773-24.159-52.752-42.837-58.83-5.946-2.559-14.784-4.089-21.72-5.73 24.801 2.166 36.69 1.494 56.28 38.58 1.77 3.42 3.54 7.29 5.25 11.28-5.07-40.731-19.701-60.849-38.28-75.24-12.876-8.595-22.854-9.684-30.87-11.04 8.847.243 19.398.249 33 7.77 13.899 8.889 23.157 18.132 32.46 41.61.66 1.56 1.107 2.91 1.38 3.87.3.93.477 1.47.477 1.47 5.082 16.272 5.367 29.061 4.86 46.26zm-83.55-31.773c-18.258-18.75-33.27-43.188-31.83-69.21 2.091 27.687 22.035 54.192 41.46 75.03-37.551-4.998-63.066-30.189-84.6-59.73 32.094 35.391 53.301 46.305 74.97 53.91zm-100.2-90.72c-.03.03-.03.06-.06.09 9.531-3.744 27.99-.366 36.24 12.96-8.403-10.641-26.586-15.42-37.86-11.31 3.615-11.751 20.838-14.943 32.79-13.26-7.596 0-18.99 1.818-25.62 6.09-3.066 1.908-3.66 3.09-5.49 5.43zm-85.17 119.04c16.875-25.293 13.677-12.126 26.25-47.1 1.395-4.026 5.772-16.68 8.7-23.25-.06.3-.42 1.59-.96 3.57-9.618 38.466-12.27 44.478-26.4 60.96 26.616-15.96 43.119-30.723 57-58.62-9.273 31.161-35.58 53.049-64.59 64.44zm-9.57-50.28v-.03c0-38.742 22.482-79.602 58.11-75.15-41.406 0-55.26 58.797-55.26 71.7 18.663-22.374 51.324-41.868 84.81-47.97-28.503 8.787-65.289 29.577-87.69 53.64.03-.72.03-1.47.03-2.19zm-59.04 83.28c19.356.621 36.228-8.715 49.26-22.83-11.964 18.819-37.206 29.664-56.46 23.28 28.749-9.603 49.563-36.378 55.74-66.6-2.325 29.025-17.829 51.24-42.36 63.72-5.262 2.436-3.18 1.143-6.18 2.43z"/><path d="M300 54.39z" fill="#26120b"/><defs><radialGradient id="i" cx="100" cy="114" r="41" gradientUnits="userSpaceOnUse" class="svga-on-canvas-facehighlight-gradient-single-0"><stop stop-opacity=".5" stop-color="#a27662" offset="0"/><stop stop-opacity="0" stop-color="#93614a" offset=".9"/></radialGradient><radialGradient id="j" cx="100" cy="54" r="37" gradientUnits="userSpaceOnUse" class="svga-on-canvas-facehighlight-gradient-single-1"><stop stop-opacity=".5" stop-color="#a27662" offset="0"/><stop stop-opacity="0" stop-color="#93614a" offset=".9"/></radialGradient><radialGradient id="c" cx="126.452" cy="84.563" r="15.179" gradientTransform="matrix(-.9148 .0479 .0523 .9986 184.4328 -6.6013)" gradientUnits="userSpaceOnUse" class="svga-on-canvas-eyesback-gradient-left-0"><stop stop-color="#fff" offset="0"/><stop stop-color="#fdfefe" offset=".544"/><stop stop-color="#f6f8f9" offset=".74"/><stop stop-color="#eaeff2" offset=".879"/><stop stop-color="#d9e3e8" offset=".992"/><stop stop-color="#d8e2e7" offset="1"/></radialGradient><radialGradient id="f" cx="126.017" cy="84.585" r="15.179" gradientTransform="matrix(.9148 .0479 -.0523 .9986 15.5672 -6.6013)" gradientUnits="userSpaceOnUse" class="svga-on-canvas-eyesback-gradient-right-0"><stop stop-color="#fff" offset="0"/><stop stop-color="#fdfefe" offset=".544"/><stop stop-color="#f6f8f9" offset=".74"/><stop stop-color="#eaeff2" offset=".879"/><stop stop-color="#d9e3e8" offset=".992"/><stop stop-color="#d8e2e7" offset="1"/></radialGradient><radialGradient id="d" cx="122.781" cy="80.48" fx="136.429" fy="80.114" r="16.914" gradientTransform="matrix(.99 .1411 .1085 -.7608 -53.0622 124.3787)" gradientUnits="userSpaceOnUse" class="svga-on-canvas-eyesfront-gradient-left-3"><stop stop-color="#844e35" offset="0"/><stop stop-opacity=".3" stop-color="#844e35" offset=".7"/><stop stop-opacity="0" stop-color="#93614a" offset="1"/></radialGradient><radialGradient id="e" cx="70.049" cy="105.782" r="29.51" gradientTransform="translate(-1.9413 1.255) scale(1.0336)" gradientUnits="userSpaceOnUse" class="svga-on-canvas-eyesfront-gradient-left-4"><stop stop-opacity="0" offset=".95"/><stop stop-opacity=".2" offset="1"/></radialGradient><radialGradient id="g" cx="122.382" cy="80.48" fx="136.03" fy="80.114" r="16.914" gradientTransform="matrix(-.99 .1411 -.1085 -.7608 252.2674 124.4351)" gradientUnits="userSpaceOnUse" class="svga-on-canvas-eyesfront-gradient-right-3"><stop stop-color="#844e35" offset="0"/><stop stop-opacity=".3" stop-color="#844e35" offset=".7"/><stop stop-opacity="0" stop-color="#93614a" offset="1"/></radialGradient><radialGradient id="h" cx="70.436" cy="105.782" r="29.51" gradientTransform="matrix(-1.0336 0 0 1.0336 201.9413 1.255)" gradientUnits="userSpaceOnUse" class="svga-on-canvas-eyesfront-gradient-right-4"><stop stop-opacity="0" offset=".95"/><stop stop-opacity=".2" offset="1"/></radialGradient><linearGradient id="a" x1="100" y1="171" x2="100" y2="130" gradientUnits="userSpaceOnUse" class="svga-on-canvas-chinshadow-gradient-single-0"><stop stop-opacity=".8" stop-color="#844e35" offset="0"/><stop stop-color="#652e15" offset=".7"/></linearGradient><linearGradient id="b" x1="100" y1="142" x2="100" y2="139" gradientUnits="userSpaceOnUse" class="svga-on-canvas-mouth-gradient-single-0"><stop stop-color="#8b573f" offset=".1"/><stop stop-color="#844e35" offset="1"/></linearGradient></defs></svg>